<svg width="228" height="60" viewBox="0 0 228 60" fill="none" xmlns="http://www.w3.org/2000/svg">
<path d="M63.9586 23.8355H58.6965V31.9621C58.6965 33.137 58.4069 34.0182 57.8759 34.6056C57.3448 35.1931 56.669 35.4868 55.8483 35.4868C54.9793 35.4868 54.3035 35.1931 53.7724 34.6056C53.2414 34.0182 53 33.137 53 32.011V9.83445C53 8.56162 53.2896 7.63148 53.869 7.09298C54.4483 6.55448 55.3655 6.26074 56.6207 6.26074H64.0069C66.1793 6.26074 67.869 6.40761 69.0276 6.75029C70.1862 7.09298 71.2 7.63148 72.0207 8.3658C72.8414 9.10013 73.5172 10.0303 73.9517 11.1562C74.3862 12.2332 74.6276 13.5061 74.6276 14.8768C74.6276 17.8141 73.7586 20.0171 71.9724 21.5347C70.1379 23.0523 67.4828 23.8355 63.9586 23.8355ZM62.5586 10.6667H58.6965V19.4296H62.5586C63.9103 19.4296 65.0207 19.2827 65.9379 18.989C66.8552 18.6953 67.531 18.2547 68.0138 17.5693C68.4966 16.9329 68.7379 16.0517 68.7379 15.0237C68.7379 13.7508 68.3517 12.7228 67.6276 11.9395C66.8069 11.0583 65.1172 10.6667 62.5586 10.6667Z" fill="#37B44E"/>
<path d="M94.0343 31.7662L92.6826 28.1435H81.1446L79.7929 31.8151C79.2619 33.2348 78.8274 34.2139 78.4412 34.7035C78.055 35.193 77.4757 35.4378 76.6067 35.4378C75.8826 35.4378 75.255 35.193 74.6757 34.6545C74.1446 34.116 73.855 33.5285 73.855 32.8432C73.855 32.4515 73.9033 32.0599 74.0481 31.6193C74.1929 31.1787 74.386 30.6402 74.6757 29.8569L81.9171 11.2051C82.1102 10.6666 82.3515 10.0302 82.6412 9.29588C82.9308 8.56155 83.2205 7.92514 83.5584 7.43559C83.8963 6.94604 84.3308 6.5544 84.8619 6.21172C85.3929 5.91799 86.0688 5.77112 86.8412 5.77112C87.6619 5.77112 88.2895 5.91799 88.8205 6.21172C89.3515 6.50545 89.786 6.89708 90.124 7.38663C90.4619 7.87618 90.7515 8.36573 90.9446 8.95319C91.186 9.49169 91.4757 10.275 91.8136 11.1562L99.1998 29.7101C99.7791 31.1297 100.069 32.1578 100.069 32.7942C100.069 33.4796 99.7791 34.067 99.2481 34.6055C98.717 35.144 98.0412 35.4378 97.2688 35.4378C96.8343 35.4378 96.4481 35.3399 96.1101 35.193C95.7722 35.0461 95.5308 34.8014 95.2894 34.5076C95.0481 34.2139 94.855 33.7733 94.5653 33.2348C94.4205 32.7453 94.2274 32.2068 94.0343 31.7662ZM82.6412 23.7865H91.0895L86.7929 11.9394L82.6412 23.7865Z" fill="#37B44E"/>
<path d="M110.159 9.29588V19.3806L121.455 7.43559C121.986 6.84813 122.469 6.45649 122.855 6.16276C123.241 5.86903 123.724 5.77112 124.352 5.77112C125.173 5.77112 125.848 6.01589 126.331 6.50544C126.862 6.99499 127.104 7.58245 127.104 8.31678C127.104 9.14901 126.669 10.0302 125.8 10.8624L118.8 17.5692L126.862 29.2695C127.441 30.1017 127.876 30.7871 128.117 31.3745C128.407 31.962 128.552 32.5984 128.552 33.1369C128.552 33.7733 128.31 34.3118 127.828 34.8014C127.345 35.2909 126.669 35.4867 125.8 35.4867C124.979 35.4867 124.352 35.2909 123.869 34.9482C123.386 34.6055 122.952 34.165 122.614 33.5775C122.276 32.99 121.938 32.5005 121.697 32.0109L114.89 21.4367L110.207 25.9895V31.913C110.207 33.1369 109.917 34.0181 109.386 34.6055C108.855 35.193 108.131 35.4867 107.31 35.4867C106.828 35.4867 106.345 35.3399 105.91 35.0951C105.476 34.8503 105.09 34.4587 104.848 34.0181C104.655 33.6754 104.559 33.2348 104.51 32.7453C104.462 32.2557 104.462 31.5703 104.462 30.6402V9.24692C104.462 8.072 104.704 7.19082 105.235 6.60336C105.766 6.0159 106.441 5.72217 107.31 5.72217C108.179 5.72217 108.855 6.0159 109.386 6.60336C109.917 7.23977 110.159 8.12096 110.159 9.29588Z" fill="#37B44E"/>
<path d="M141.393 22.7096H139.365V31.962C139.365 33.1859 139.124 34.0671 138.593 34.6546C138.062 35.242 137.386 35.5358 136.517 35.5358C135.6 35.5358 134.876 35.242 134.393 34.6546C133.91 34.0671 133.621 33.1859 133.621 32.011V9.8834C133.621 8.61057 133.91 7.72938 134.441 7.14192C134.972 6.60342 135.89 6.30969 137.145 6.30969H146.462C147.765 6.30969 148.876 6.35865 149.745 6.45656C150.662 6.55447 151.483 6.79924 152.207 7.14192C153.076 7.53356 153.896 8.07207 154.572 8.75744C155.248 9.4428 155.779 10.275 156.117 11.2052C156.455 12.1353 156.648 13.1144 156.648 14.1914C156.648 16.3454 156.069 18.0589 154.862 19.3317C153.655 20.6045 151.869 21.5347 149.455 22.0732C150.469 22.6117 151.434 23.4439 152.352 24.5209C153.269 25.5979 154.09 26.7239 154.814 27.9478C155.538 29.1716 156.117 30.2486 156.503 31.2277C156.89 32.2068 157.131 32.8922 157.131 33.2349C157.131 33.6265 157.034 33.9692 156.793 34.3608C156.552 34.7525 156.214 35.0462 155.828 35.242C155.393 35.4378 154.959 35.5847 154.379 35.5847C153.752 35.5847 153.172 35.4378 152.738 35.1441C152.303 34.8504 151.917 34.4587 151.627 33.9692C151.29 33.4796 150.903 32.7943 150.324 31.9131L148.007 28.0457C147.186 26.626 146.462 25.549 145.786 24.8146C145.159 24.0803 144.483 23.5418 143.807 23.297C143.131 23.0523 142.455 22.7096 141.393 22.7096ZM144.724 10.6667H139.414V18.5484H144.579C145.979 18.5484 147.138 18.4505 148.055 18.2057C148.972 17.9609 149.696 17.5693 150.228 16.9818C150.71 16.3944 150.952 15.6111 150.952 14.5831C150.952 13.7998 150.759 13.0655 150.372 12.478C149.986 11.8906 149.407 11.401 148.731 11.1073C148.007 10.8135 146.655 10.6667 144.724 10.6667Z" fill="#37B44E"/>
<path d="M162.393 31.962V9.29588C162.393 8.12096 162.634 7.23977 163.165 6.65231C163.697 6.06485 164.372 5.77112 165.193 5.77112C166.062 5.77112 166.738 6.06485 167.269 6.65231C167.8 7.23977 168.09 8.12096 168.09 9.29588V31.962C168.09 33.1369 167.8 34.0181 167.269 34.6055C166.738 35.193 166.014 35.4867 165.193 35.4867C164.372 35.4867 163.697 35.193 163.165 34.6055C162.683 34.0181 162.393 33.1369 162.393 31.962Z" fill="#37B44E"/>
<path d="M196.138 26.3811C196.138 28.1435 195.703 29.6611 194.835 31.0808C193.966 32.4515 192.662 33.5285 190.972 34.3118C189.283 35.0951 187.255 35.4867 184.938 35.4867C182.138 35.4867 179.821 34.9482 178.035 33.8712C176.731 33.0879 175.717 32.0599 174.897 30.7871C174.076 29.5142 173.69 28.2414 173.69 27.0175C173.69 26.3322 173.931 25.6958 174.414 25.2062C174.897 24.7167 175.524 24.4719 176.248 24.4719C176.876 24.4719 177.359 24.6677 177.793 25.0593C178.228 25.451 178.566 26.0384 178.855 26.8217C179.193 27.7519 179.628 28.4862 180.014 29.1226C180.448 29.759 181.028 30.2486 181.8 30.6402C182.572 31.0318 183.538 31.2276 184.793 31.2276C186.483 31.2276 187.883 30.836 188.945 30.0038C190.007 29.1715 190.538 28.1924 190.538 27.0175C190.538 26.0874 190.248 25.3041 189.669 24.7167C189.09 24.1292 188.366 23.6886 187.448 23.3459C186.531 23.0522 185.324 22.7095 183.779 22.3668C181.752 21.8773 180.014 21.3388 178.662 20.6534C177.31 20.017 176.2 19.1358 175.379 18.0098C174.559 16.8839 174.172 15.5131 174.172 13.8487C174.172 12.2821 174.607 10.8624 175.428 9.63855C176.297 8.41468 177.503 7.48453 179.145 6.79917C180.786 6.1138 182.669 5.82007 184.841 5.82007C186.579 5.82007 188.076 6.01589 189.379 6.45648C190.635 6.89708 191.697 7.48453 192.517 8.21885C193.338 8.95318 193.966 9.68751 194.352 10.5197C194.738 11.303 194.931 12.0863 194.931 12.8696C194.931 13.5549 194.69 14.1914 194.207 14.7299C193.724 15.2684 193.145 15.5621 192.421 15.5621C191.745 15.5621 191.262 15.4152 190.924 15.0725C190.586 14.7299 190.2 14.1914 189.814 13.457C189.283 12.38 188.703 11.5478 187.979 10.9114C187.255 10.275 186.097 9.98123 184.504 9.98123C183.007 9.98123 181.848 10.3239 180.931 10.9603C180.014 11.5967 179.579 12.429 179.579 13.3591C179.579 13.9466 179.724 14.4361 180.062 14.8278C180.352 15.2684 180.786 15.611 181.317 15.9048C181.848 16.1985 182.428 16.4433 182.959 16.5901C183.49 16.737 184.407 17.0307 185.71 17.3245C187.304 17.7161 188.752 18.1077 190.055 18.5973C191.359 19.0379 192.469 19.6253 193.338 20.2618C194.255 20.8982 194.979 21.7304 195.462 22.7585C195.848 23.7376 196.138 24.9614 196.138 26.3811Z" fill="#37B44E"/>
<path d="M210.572 30.6892L206.034 12.3801V32.2068C206.034 33.2838 205.793 34.1161 205.31 34.6546C204.827 35.1931 204.2 35.4868 203.379 35.4868C202.607 35.4868 201.979 35.1931 201.496 34.6546C201.014 34.1161 200.772 33.2838 200.772 32.1579V9.49176C200.772 8.21893 201.11 7.3867 201.738 6.94611C202.365 6.50551 203.234 6.30969 204.345 6.30969H206.131C207.193 6.30969 207.965 6.40761 208.448 6.60342C208.931 6.79924 209.269 7.14193 209.51 7.68043C209.752 8.21893 209.993 9.00221 210.283 10.1771L214.386 25.9406L218.489 10.1771C218.779 9.05116 219.069 8.21893 219.262 7.68043C219.503 7.19088 219.841 6.79924 220.324 6.60342C220.807 6.40761 221.579 6.30969 222.641 6.30969H224.427C225.538 6.30969 226.407 6.50551 227.034 6.94611C227.662 7.3867 228 8.21893 228 9.49176V32.2558C228 33.3328 227.758 34.165 227.276 34.7035C226.793 35.242 226.165 35.5358 225.345 35.5358C224.572 35.5358 223.945 35.242 223.462 34.7035C222.979 34.165 222.738 33.3328 222.738 32.2558V12.4291L218.2 30.7382C217.91 31.9131 217.669 32.7943 217.476 33.3328C217.283 33.8713 216.945 34.4098 216.462 34.8504C215.979 35.291 215.255 35.5358 214.386 35.5358C213.71 35.5358 213.131 35.3889 212.696 35.0952C212.214 34.8014 211.876 34.4098 211.634 33.9692C211.393 33.5286 211.152 32.9901 211.007 32.4516C210.862 31.9131 210.717 31.2767 210.572 30.6892Z" fill="#37B44E"/>
<path fill-rule="evenodd" clip-rule="evenodd" d="M21.5 0C9.61031 0 0 9.85263 0 22.0421C0 39.2842 21.5 60 21.5 60C21.5 60 43 38.8421 43 22.0421C43 9.85263 33.3897 0 21.5 0ZM39.0574 21.9157C38.9958 31.8947 31.1104 39.9157 21.3769 39.9157C11.6434 39.8526 3.81958 31.7683 3.81958 21.7894C3.88118 11.8736 11.705 3.7894 21.3769 3.7894C31.0488 3.72624 38.9342 11.7473 38.9958 21.7262C39.0574 21.7894 39.0574 21.8526 39.0574 21.9157ZM37.2093 21.8526C37.2093 12.9473 30.1863 5.68413 21.5001 5.68413C12.8138 5.68413 5.72931 12.8841 5.72931 21.7894C5.72931 30.6947 12.7522 37.9578 21.4385 37.9578C30.1863 37.9578 37.2093 30.7578 37.2093 21.8526ZM12.8754 11.1157C9.30234 13.9578 7.63902 17.8104 7.70062 22.421L7.88543 22.6104C7.98809 22.4841 8.0976 22.3578 8.20711 22.2315L8.20715 22.2315C8.42619 21.9789 8.64522 21.7262 8.8095 21.4736C9.05592 20.9683 9.67197 20.7157 10.1648 20.9683C10.6576 21.1578 10.9657 20.9683 11.2121 20.5262C12.1978 18.9473 13.3682 17.5578 14.7235 16.2946C14.7235 16.2556 14.7471 16.2407 14.7796 16.2201C14.7997 16.2074 14.8232 16.1925 14.8468 16.1683C15.2164 15.9157 15.7092 15.9789 15.9556 16.2946C16.1404 16.4841 16.3407 16.6736 16.5409 16.8631L16.5409 16.8631C16.7411 17.0526 16.9413 17.242 17.1261 17.4315C17.3109 17.621 17.4957 17.6841 17.7422 17.3683C17.927 17.1473 18.1272 16.9262 18.3274 16.7052C18.5276 16.4841 18.7279 16.2631 18.9127 16.042L21.3152 13.0104C21.8081 12.442 22.2393 12.442 22.6089 13.1368C23.1241 14.017 23.6094 14.8973 24.1064 15.7989L24.1065 15.7991L24.1067 15.7994C24.3228 16.1915 24.5411 16.5875 24.7651 16.9894C25.2579 17.8104 25.566 17.8104 26.182 17.0525L26.1821 17.0524L26.1822 17.0524C27.1678 15.8524 28.1534 14.6525 29.2006 13.5157C29.8167 12.821 30.1247 12.8841 30.6791 13.5789L34.3754 18.1262C34.4678 18.1894 34.5448 18.2683 34.6218 18.3473C34.6988 18.4262 34.7758 18.5052 34.8683 18.5683L34.9915 18.442C34.0058 14.5894 31.48 11.3683 27.9685 9.59992C22.6705 6.94729 17.5574 7.45255 12.8754 11.1157ZM19.4981 31.1253L19.4981 31.1254L19.4982 31.1254C19.8034 31.3292 20.0806 31.5144 20.3297 31.6421C20.6378 31.8316 20.761 32.0211 20.453 32.3369C20.0218 32.8421 19.606 33.3473 19.1902 33.8525L19.1901 33.8527C18.7742 34.3579 18.3584 34.8632 17.9272 35.3685C17.7424 35.4948 17.4959 35.5579 17.3111 35.5579C16.7689 35.3726 16.1935 35.1193 15.6336 34.8729C15.4301 34.7833 15.2288 34.6947 15.0317 34.6105C14.6621 34.5474 14.4773 34.1684 14.5389 33.7895V33.7263C14.6005 33.4105 14.6621 33.0948 14.6621 32.779C14.6621 32.3369 14.9085 32.2737 15.2782 32.2737C15.8942 32.3369 16.5103 32.2737 17.1263 32.1474C16.4486 31.8316 15.7094 31.5158 15.0317 31.2632C14.4773 31.0737 14.4157 30.9474 14.5389 30.3158C14.7853 29.4948 14.9701 28.6737 15.155 27.8527C15.2782 27.4106 15.463 27.2211 15.8942 27.4105C15.9365 27.4214 15.977 27.4322 16.0163 27.4427C16.2059 27.4935 16.3677 27.5369 16.5719 27.5369C16.2638 27.2211 15.9558 26.9053 15.7094 26.5895C15.6694 26.5485 15.6262 26.5059 15.5818 26.4621C15.3528 26.2361 15.0934 25.9801 15.0934 25.7684C15.0934 25.1369 15.155 24.5684 15.2782 23.9369C15.2782 23.8106 15.5862 23.6842 15.7094 23.6842H16.6335C16.4809 23.3974 16.2547 23.1859 16.0331 22.9787C15.718 22.684 15.4121 22.3979 15.3398 21.9158C15.486 21.9158 15.5937 21.9554 15.7239 22.0032L15.7239 22.0032L15.724 22.0032L15.7242 22.0033C15.7584 22.0159 15.7942 22.029 15.8326 22.0421C16.2392 22.32 16.6458 22.2243 17.0524 22.1286C17.2002 22.0938 17.3481 22.059 17.4959 22.0421C17.5575 22.0421 17.6808 21.8527 17.6808 21.7895C17.7732 21.5053 17.881 21.2211 17.9888 20.9369C18.0966 20.6527 18.2044 20.3684 18.2968 20.0842C18.42 19.7053 18.5432 19.6421 18.9744 19.8316C19.4057 20.0527 19.8369 20.2579 20.2681 20.4632C20.6994 20.6684 21.1306 20.8737 21.5618 21.0948C21.9931 21.4105 22.4243 21.7895 22.8555 22.1684L22.8555 22.1685C21.9315 22.7369 21.1306 23.1158 20.1449 22.9895C19.7753 22.9263 19.4057 22.9263 19.036 22.9895V23.179L21.6234 24.379V24.5684L19.2209 24.9474C19.2825 25.0316 19.3441 25.1228 19.4057 25.2141L19.4057 25.2141C19.5289 25.3965 19.6521 25.579 19.7753 25.7053C20.1449 26.0211 20.2065 26.5264 19.8985 26.9685C19.8677 27 19.8523 27.0316 19.8369 27.0632C19.8215 27.0948 19.8061 27.1263 19.7753 27.1579C19.2209 28.3579 19.2209 28.3579 20.3297 29.1158C20.6378 29.3369 20.9304 29.5579 21.223 29.779C21.5156 30 21.8082 30.2211 22.1163 30.4421L22.0547 30.5684L19.036 30.8211C19.1966 30.9239 19.3506 31.0268 19.498 31.1253L19.4981 31.1253L19.4981 31.1253ZM29.0882 29.6146C28.4417 29.2773 27.8297 28.958 27.0446 29.2421C27.6606 29.9368 28.2151 30.6315 28.6463 31.3263C29.0776 31.8315 29.4472 32.3368 29.8168 32.9052C30.0016 33.1579 30.1864 33.1579 30.4328 32.9684C32.5274 31.2 34.0675 28.8 34.8068 26.1473C34.8684 25.8947 34.8068 25.6421 34.6836 25.4526C33.9443 24.6315 33.1435 23.8105 32.3426 23.0526L32.1578 22.8631C31.8498 22.7368 31.4801 22.8 31.3569 23.1158C31.2953 23.2421 31.1105 23.3052 30.9873 23.3052C30.5561 23.3684 30.1248 23.2421 29.7552 22.9263C28.7695 22.2315 27.7839 21.6631 26.7366 21.0947C26.6134 21.0315 26.4902 21.0315 26.3669 21.0315C26.4285 21.1263 26.4747 21.2052 26.521 21.2842C26.5672 21.3631 26.6134 21.4421 26.675 21.5368C27.291 22.2631 27.8917 23.0052 28.4923 23.7473C29.0929 24.4894 29.6936 25.2315 30.3097 25.9579C30.6177 26.3368 30.8025 26.7158 30.3097 27.0947C29.9668 27.012 29.6371 26.8886 29.3055 26.7646L29.3055 26.7646C28.6242 26.5097 27.9349 26.2519 27.1062 26.3368C27.1872 26.4476 27.2564 26.5341 27.319 26.6123C27.3991 26.7124 27.4683 26.7988 27.5374 26.9052C28.2151 27.6631 28.8927 28.4842 29.5088 29.3052C29.632 29.4947 29.6936 29.6842 29.7552 29.9368C29.5239 29.8419 29.3041 29.7273 29.0882 29.6146ZM31.7266 21.3474L31.7265 21.3473C31.3415 21.0473 30.9564 20.7473 30.556 20.4631C30.4328 20.3368 30.1863 20.1473 30.0631 20.2105C29.5087 20.4631 29.1391 20.1473 28.7695 19.8315L28.7695 19.8315C28.5846 19.7052 28.4152 19.5631 28.2458 19.421L28.2458 19.4209C28.0764 19.2789 27.907 19.1368 27.7222 19.0105V18.821C28.1226 18.7578 28.523 18.6789 28.9235 18.5999C29.3239 18.521 29.7243 18.442 30.1247 18.3789C30.2171 18.3473 30.2942 18.3157 30.3712 18.2841C30.4482 18.2526 30.5252 18.221 30.6176 18.1894C30.556 18.0631 30.4328 17.8736 30.3096 17.8105C29.9516 17.5352 29.5611 17.2933 29.1853 17.0604C29.0438 16.9727 28.9043 16.8863 28.7695 16.7999C29.2623 16.3578 29.6935 15.9789 30.1864 15.5999C30.3096 15.5368 30.4944 15.5999 30.6176 15.6631C31.9729 16.9262 33.3282 18.1894 34.5603 19.5157C34.8368 19.7992 34.936 20.2385 35.0366 20.6837C35.0928 20.9328 35.1495 21.1838 35.2379 21.4105L35.0531 21.5368L31.5417 19.642L31.3568 19.8315L33.0818 21.9789L32.8969 22.2315C32.4966 21.9473 32.1115 21.6473 31.7266 21.3474ZM10.0124 29.997C10.0827 30.1 10.1546 30.2052 10.2265 30.3157H10.5346C10.5346 30.2114 10.5532 30.1263 10.57 30.0497C10.5837 29.9872 10.5962 29.9304 10.5962 29.8736L10.5962 29.8735C10.781 28.3578 10.9658 26.842 11.8899 25.5157L11.9515 25.4526C12.0747 25.1999 11.9515 24.9473 11.7667 24.821C11.5202 24.5684 11.2738 24.3157 10.9042 24H11.6434C11.6802 23.9811 11.717 23.9679 11.7521 23.9552C11.8347 23.9255 11.9082 23.8991 11.9515 23.8105C12.1363 23.3052 12.0131 22.8 11.5818 22.5473C11.2123 22.421 10.8427 22.2316 10.4732 22.0422L10.473 22.0421H10.4114C10.1033 21.7894 9.67209 21.9157 9.42567 22.2315C8.99444 22.6736 8.80964 23.0526 9.24087 23.5578C9.36408 23.6842 9.48729 23.8736 9.54889 24.0631C10.0417 24.8842 9.98013 25.0105 9.05606 25.0736H9.05602C8.99446 25.0736 8.99443 25.0736 8.93284 25.1368C8.99445 25.5789 8.99444 25.9579 8.87124 26.3368C8.62482 26.9684 8.68643 27.6631 9.05606 28.2315C9.14847 28.3894 9.22547 28.5631 9.30247 28.7368C9.37948 28.9105 9.45648 29.0842 9.54889 29.242C9.67978 29.5104 9.84157 29.7471 10.0124 29.997Z" fill="#37B44E"/>
<path d="M59.3957 43.066H54.9664V45.3149H59.0448C59.3449 45.3149 59.5678 45.3794 59.7135 45.5085C59.8635 45.6335 59.9386 45.8 59.9386 46.0083C59.9386 46.2165 59.8657 46.3872 59.7201 46.5205C59.5744 46.6496 59.3493 46.7141 59.0448 46.7141H54.9664V49.319H59.5479C59.8569 49.319 60.0886 49.3878 60.2431 49.5252C60.402 49.6584 60.4815 49.8375 60.4815 50.0624C60.4815 50.279 60.402 50.4559 60.2431 50.5934C60.0886 50.7266 59.8569 50.7933 59.5479 50.7933H54.205C53.7768 50.7933 53.4679 50.7037 53.2781 50.5247C53.0927 50.3456 53 50.0562 53 49.6564V42.7724C53 42.5059 53.0419 42.2894 53.1258 42.1228C53.2097 41.952 53.3399 41.8292 53.5164 41.7542C53.6974 41.6751 53.9269 41.6355 54.205 41.6355H59.3957C59.709 41.6355 59.9408 41.7022 60.0908 41.8354C60.2453 41.9645 60.3226 42.1353 60.3226 42.3477C60.3226 42.5642 60.2453 42.7391 60.0908 42.8724C59.9408 43.0015 59.709 43.066 59.3957 43.066Z" fill="#37B44E"/>
<path d="M65.8377 50.2436L64.5267 48.4258L63.1827 50.2436C62.9885 50.4976 62.823 50.6787 62.6862 50.787C62.5538 50.8953 62.3838 50.9494 62.1764 50.9494C61.9469 50.9494 61.7504 50.8828 61.5871 50.7495C61.4282 50.6121 61.3488 50.4559 61.3488 50.281C61.3488 50.102 61.4724 49.8458 61.7195 49.5127L63.3549 47.3013L61.9049 45.4585C61.6533 45.1545 61.5275 44.8901 61.5275 44.6652C61.5275 44.4903 61.6026 44.3383 61.7526 44.2092C61.9027 44.0801 62.0991 44.0155 62.3419 44.0155C62.5538 44.0155 62.7281 44.0718 62.8649 44.1842C63.0062 44.2967 63.1695 44.4736 63.3549 44.7152L64.5267 46.2269L65.6655 44.7152C65.8553 44.4653 66.0186 44.2862 66.1555 44.178C66.2967 44.0697 66.471 44.0155 66.6785 44.0155C66.9168 44.0155 67.1133 44.0801 67.2677 44.2092C67.4266 44.3341 67.5061 44.4861 67.5061 44.6652C67.5061 44.7943 67.473 44.9192 67.4068 45.04C67.345 45.1566 67.2479 45.2961 67.1155 45.4585L65.6655 47.3013L67.3008 49.5127C67.5569 49.8583 67.6849 50.1186 67.6849 50.2935C67.6849 50.4726 67.6054 50.6267 67.4465 50.7558C67.2876 50.8849 67.0912 50.9494 66.8573 50.9494C66.6498 50.9494 66.4733 50.8932 66.3276 50.7808C66.1864 50.6683 66.023 50.4893 65.8377 50.2436Z" fill="#37B44E"/>
<path d="M70.6576 44.9713V45.1774C70.9974 44.7818 71.3505 44.4924 71.7169 44.3091C72.0832 44.1217 72.4981 44.028 72.9616 44.028C73.5177 44.028 74.0297 44.1634 74.4976 44.4341C74.9655 44.7048 75.334 45.1004 75.6033 45.621C75.8769 46.1415 76.0138 46.7579 76.0138 47.47C76.0138 47.9947 75.9343 48.4778 75.7754 48.9192C75.6209 49.3565 75.4069 49.7251 75.1332 50.0249C74.8596 50.3206 74.5351 50.5496 74.16 50.7121C73.7892 50.8703 73.3897 50.9494 72.9616 50.9494C72.4452 50.9494 72.0104 50.8516 71.6573 50.6558C71.3086 50.4601 70.9754 50.1728 70.6576 49.7938V52.355C70.6576 53.1046 70.3685 53.4794 69.7903 53.4794C69.4504 53.4794 69.2253 53.3815 69.1149 53.1858C69.0046 52.9942 68.9494 52.7131 68.9494 52.3425V44.9838C68.9494 44.659 69.0245 44.4174 69.1745 44.2592C69.3246 44.0968 69.5298 44.0155 69.7903 44.0155C70.0463 44.0155 70.2537 44.0988 70.4126 44.2654C70.5759 44.4278 70.6576 44.6631 70.6576 44.9713ZM74.1997 47.4513C74.1997 47.0015 74.1269 46.6163 73.9812 46.2956C73.8355 45.9708 73.6325 45.723 73.3721 45.5522C73.1161 45.3773 72.8314 45.2899 72.518 45.2899C72.0192 45.2899 71.5977 45.4752 71.2534 45.8458C70.9136 46.2165 70.7436 46.762 70.7436 47.4825C70.7436 48.1613 70.9136 48.6902 71.2534 49.0692C71.5933 49.444 72.0148 49.6314 72.518 49.6314C72.8182 49.6314 73.0962 49.5502 73.3522 49.3878C73.6082 49.2212 73.8135 48.9734 73.968 48.6444C74.1224 48.3154 74.1997 47.9177 74.1997 47.4513Z" fill="#37B44E"/>
<path d="M77.4637 49.9125V42.5163C77.4637 42.1748 77.5432 41.9166 77.7021 41.7417C77.8654 41.5668 78.0839 41.4794 78.3575 41.4794C78.6312 41.4794 78.8519 41.5668 79.0196 41.7417C79.1873 41.9125 79.2712 42.1707 79.2712 42.5163V49.9125C79.2712 50.2581 79.1851 50.5184 79.013 50.6933C78.8453 50.8641 78.6268 50.9494 78.3575 50.9494C78.0927 50.9494 77.8764 50.8599 77.7087 50.6808C77.5454 50.5018 77.4637 50.2456 77.4637 49.9125Z" fill="#37B44E"/>
<path d="M87.9113 47.4825C87.9113 47.9906 87.8274 48.4591 87.6597 48.888C87.492 49.317 87.2492 49.6855 86.9314 49.9937C86.6136 50.3019 86.234 50.5392 85.7926 50.7058C85.3513 50.8682 84.8547 50.9494 84.303 50.9494C83.7557 50.9494 83.2635 50.8661 82.8265 50.6996C82.3896 50.533 82.01 50.2956 81.6878 49.9874C81.37 49.6751 81.1272 49.3086 80.9595 48.888C80.7962 48.4632 80.7145 47.9947 80.7145 47.4825C80.7145 46.9661 80.7984 46.4934 80.9661 46.0645C81.1338 45.6355 81.3744 45.2691 81.6878 44.9651C82.0011 44.661 82.3807 44.4278 82.8265 44.2654C83.2723 44.0988 83.7645 44.0155 84.303 44.0155C84.8503 44.0155 85.3468 44.0988 85.7926 44.2654C86.2384 44.432 86.6202 44.6694 86.938 44.9775C87.2558 45.2857 87.4964 45.6522 87.6597 46.077C87.8274 46.5018 87.9113 46.9703 87.9113 47.4825ZM86.0972 47.4825C86.0972 46.787 85.9339 46.2456 85.6073 45.8583C85.285 45.471 84.8503 45.2774 84.303 45.2774C83.9499 45.2774 83.6387 45.3648 83.3694 45.5398C83.1002 45.7105 82.8927 45.9645 82.7471 46.3019C82.6014 46.6392 82.5286 47.0327 82.5286 47.4825C82.5286 47.9281 82.5992 48.3175 82.7405 48.6506C82.8861 48.9838 83.0914 49.2399 83.3562 49.419C83.6254 49.5939 83.941 49.6813 84.303 49.6813C84.8503 49.6813 85.285 49.4877 85.6073 49.1004C85.9339 48.7089 86.0972 48.1696 86.0972 47.4825Z" fill="#37B44E"/>
<path d="M91.1356 48.4882V49.9125C91.1356 50.2581 91.0495 50.5184 90.8774 50.6933C90.7052 50.8641 90.4868 50.9494 90.2219 50.9494C89.9615 50.9494 89.7474 50.862 89.5797 50.6871C89.412 50.5122 89.3281 50.254 89.3281 49.9125V45.165C89.3281 44.3987 89.6216 44.0155 90.2087 44.0155C90.5088 44.0155 90.7251 44.1051 90.8575 44.2842C90.9899 44.4632 91.0628 44.7277 91.076 45.0775C91.2923 44.7277 91.513 44.4632 91.7381 44.2842C91.9676 44.1051 92.2722 44.0155 92.6517 44.0155C93.0313 44.0155 93.3999 44.1051 93.7574 44.2842C94.1149 44.4632 94.2937 44.7006 94.2937 44.9963C94.2937 45.2045 94.2165 45.3773 94.062 45.5148C93.9119 45.648 93.7486 45.7147 93.572 45.7147C93.5058 45.7147 93.3447 45.6772 93.0887 45.6022C92.8371 45.5231 92.6142 45.4835 92.42 45.4835C92.1552 45.4835 91.9389 45.5502 91.7712 45.6834C91.6035 45.8125 91.4733 46.0062 91.3806 46.2644C91.2879 46.5226 91.2239 46.8307 91.1886 47.1889C91.1532 47.5429 91.1356 47.976 91.1356 48.4882Z" fill="#37B44E"/>
<path d="M99.9876 47.901H96.4521C96.4565 48.2883 96.5381 48.6298 96.697 48.9255C96.8603 49.2212 97.0744 49.444 97.3392 49.5939C97.6085 49.7438 97.9042 49.8188 98.2264 49.8188C98.4427 49.8188 98.6391 49.7959 98.8157 49.7501C98.9966 49.7001 99.171 49.6251 99.3387 49.5252C99.5064 49.4211 99.6609 49.3107 99.8022 49.1941C99.9434 49.0775 100.127 48.9192 100.352 48.7193C100.444 48.6444 100.577 48.6069 100.749 48.6069C100.934 48.6069 101.084 48.6548 101.199 48.7506C101.314 48.8464 101.371 48.9817 101.371 49.1566C101.371 49.3107 101.307 49.4919 101.179 49.7001C101.051 49.9041 100.857 50.102 100.597 50.2935C100.341 50.4809 100.016 50.6371 99.6234 50.762C99.235 50.887 98.787 50.9494 98.2794 50.9494C97.1186 50.9494 96.2159 50.6371 95.5715 50.0124C94.9271 49.3878 94.6049 48.5403 94.6049 47.47C94.6049 46.9661 94.6843 46.4997 94.8432 46.0707C95.0021 45.6376 95.2338 45.267 95.5384 44.9588C95.843 44.6506 96.2181 44.4153 96.6639 44.2529C97.1097 44.0863 97.6041 44.0031 98.147 44.0031C98.8532 44.0031 99.4579 44.1446 99.9611 44.4278C100.469 44.7069 100.848 45.0692 101.1 45.5148C101.351 45.9604 101.477 46.4143 101.477 46.8766C101.477 47.3055 101.347 47.5845 101.087 47.7136C100.826 47.8386 100.46 47.901 99.9876 47.901ZM96.4521 46.9328H99.7293C99.6852 46.3498 99.5175 45.9146 99.2262 45.6272C98.9393 45.3357 98.5597 45.1899 98.0874 45.1899C97.6372 45.1899 97.2664 45.3378 96.9751 45.6335C96.6882 45.925 96.5139 46.3581 96.4521 46.9328Z" fill="#37B44E"/>
<path d="M110.289 47.2264H108.489V49.8188C108.489 50.1894 108.396 50.4705 108.211 50.6621C108.025 50.8537 107.791 50.9494 107.509 50.9494C107.213 50.9494 106.975 50.8557 106.794 50.6683C106.613 50.4768 106.522 50.1977 106.522 49.8313V42.7724C106.522 42.3643 106.622 42.0728 106.82 41.8979C107.019 41.723 107.334 41.6355 107.767 41.6355H110.289C111.035 41.6355 111.609 41.6897 112.011 41.798C112.408 41.9021 112.75 42.0749 113.037 42.3164C113.328 42.558 113.549 42.8537 113.699 43.2035C113.849 43.5533 113.924 43.9468 113.924 44.3841C113.924 45.317 113.62 46.0249 113.011 46.508C112.401 46.9869 111.494 47.2264 110.289 47.2264ZM109.813 43.0286H108.489V45.8271H109.813C110.276 45.8271 110.662 45.7813 110.971 45.6897C111.285 45.5981 111.523 45.4481 111.686 45.2399C111.85 45.0317 111.931 44.7589 111.931 44.4216C111.931 44.0176 111.806 43.6886 111.554 43.4346C111.272 43.1639 110.691 43.0286 109.813 43.0286Z" fill="#37B44E"/>
<path d="M119.492 49.9874C119.055 50.3081 118.632 50.5496 118.221 50.7121C117.815 50.8703 117.358 50.9494 116.851 50.9494C116.387 50.9494 115.979 50.8641 115.626 50.6933C115.277 50.5184 115.008 50.2831 114.818 49.9874C114.628 49.6918 114.533 49.3711 114.533 49.0254C114.533 48.559 114.69 48.1613 115.003 47.8323C115.317 47.5033 115.747 47.2826 116.294 47.1702C116.409 47.1452 116.694 47.0889 117.149 47.0015C117.603 46.914 117.992 46.8349 118.314 46.7641C118.64 46.6892 118.994 46.5996 119.373 46.4955C119.351 46.0457 119.254 45.7167 119.082 45.5085C118.914 45.2961 118.563 45.1899 118.029 45.1899C117.57 45.1899 117.224 45.2503 116.99 45.3711C116.76 45.4919 116.562 45.673 116.394 45.9146C116.23 46.1561 116.114 46.3164 116.043 46.3956C115.977 46.4705 115.831 46.508 115.606 46.508C115.403 46.508 115.226 46.4476 115.076 46.3268C114.931 46.2019 114.858 46.0437 114.858 45.8521C114.858 45.5522 114.97 45.2607 115.195 44.9775C115.421 44.6944 115.771 44.4612 116.248 44.2779C116.725 44.0947 117.319 44.0031 118.029 44.0031C118.824 44.0031 119.448 44.0926 119.903 44.2717C120.357 44.4466 120.677 44.7256 120.863 45.1087C121.053 45.4919 121.148 45.9999 121.148 46.6329C121.148 47.0327 121.145 47.3721 121.141 47.6512C121.141 47.9302 121.139 48.2404 121.134 48.5819C121.134 48.9026 121.189 49.2378 121.3 49.5876C121.415 49.9333 121.472 50.1561 121.472 50.256C121.472 50.431 121.384 50.5913 121.207 50.737C121.035 50.8786 120.839 50.9494 120.618 50.9494C120.432 50.9494 120.249 50.8682 120.068 50.7058C119.887 50.5392 119.695 50.2998 119.492 49.9874ZM119.373 47.52C119.108 47.6116 118.722 47.7095 118.215 47.8136C117.711 47.9135 117.363 47.9885 117.168 48.0385C116.974 48.0843 116.789 48.178 116.612 48.3196C116.436 48.457 116.347 48.6506 116.347 48.9005C116.347 49.1587 116.451 49.3794 116.659 49.5627C116.866 49.7417 117.138 49.8313 117.473 49.8313C117.831 49.8313 118.159 49.7584 118.459 49.6126C118.764 49.4627 118.987 49.2711 119.128 49.0379C119.291 48.7797 119.373 48.355 119.373 47.7636V47.52Z" fill="#37B44E"/>
<path d="M127.49 50.1686L125.895 47.6949L124.915 48.5694V49.925C124.915 50.254 124.822 50.508 124.637 50.6871C124.456 50.862 124.246 50.9494 124.008 50.9494C123.73 50.9494 123.511 50.862 123.352 50.6871C123.193 50.5122 123.114 50.254 123.114 49.9125V42.6413C123.114 42.2623 123.191 41.9749 123.346 41.7792C123.5 41.5793 123.721 41.4794 124.008 41.4794C124.286 41.4794 124.506 41.5689 124.67 41.748C124.833 41.9271 124.915 42.1915 124.915 42.5413V46.6767L126.947 44.6652C127.199 44.4153 127.391 44.2446 127.523 44.153C127.656 44.0614 127.817 44.0155 128.007 44.0155C128.232 44.0155 128.419 44.0843 128.569 44.2217C128.719 44.355 128.794 44.5236 128.794 44.7277C128.794 44.9775 128.55 45.3107 128.06 45.7272L127.1 46.558L128.953 49.3065C129.09 49.5106 129.187 49.6668 129.245 49.775C129.306 49.8792 129.337 49.9791 129.337 50.0749C129.337 50.3456 129.258 50.5601 129.099 50.7183C128.945 50.8724 128.739 50.9494 128.483 50.9494C128.263 50.9494 128.093 50.8932 127.974 50.7808C127.854 50.6683 127.693 50.4643 127.49 50.1686Z" fill="#37B44E"/>
<path d="M132.224 44.9838V49.9125C132.224 50.254 132.138 50.5122 131.966 50.6871C131.794 50.862 131.575 50.9494 131.31 50.9494C131.046 50.9494 130.829 50.8599 130.662 50.6808C130.498 50.5018 130.417 50.2456 130.417 49.9125V45.0338C130.417 44.6964 130.498 44.4424 130.662 44.2717C130.829 44.1009 131.046 44.0155 131.31 44.0155C131.575 44.0155 131.794 44.1009 131.966 44.2717C132.138 44.4424 132.224 44.6798 132.224 44.9838ZM131.33 43.2222C131.079 43.2222 130.862 43.1493 130.681 43.0036C130.505 42.8578 130.417 42.6517 130.417 42.3851C130.417 42.1436 130.507 41.9458 130.688 41.7917C130.873 41.6335 131.087 41.5543 131.33 41.5543C131.564 41.5543 131.772 41.6251 131.953 41.7667C132.134 41.9083 132.224 42.1145 132.224 42.3851C132.224 42.6475 132.136 42.8537 131.959 43.0036C131.783 43.1493 131.573 43.2222 131.33 43.2222Z" fill="#37B44E"/>
<path d="M139.917 48.7193C139.917 49.1899 139.796 49.5939 139.553 49.9312C139.31 50.2644 138.951 50.5184 138.474 50.6933C138.002 50.8641 137.426 50.9494 136.746 50.9494C136.097 50.9494 135.541 50.8557 135.078 50.6683C134.614 50.4809 134.272 50.2477 134.051 49.9687C133.831 49.6855 133.72 49.4023 133.72 49.1191C133.72 48.9317 133.791 48.7714 133.932 48.6381C134.073 48.5049 134.252 48.4382 134.468 48.4382C134.658 48.4382 134.804 48.482 134.905 48.5694C135.007 48.6569 135.104 48.7797 135.197 48.938C135.382 49.242 135.603 49.469 135.859 49.6189C136.119 49.7688 136.472 49.8438 136.918 49.8438C137.28 49.8438 137.576 49.7688 137.805 49.6189C138.039 49.4648 138.156 49.2899 138.156 49.0942C138.156 48.7943 138.035 48.5757 137.792 48.4382C137.554 48.3008 137.159 48.1696 136.607 48.0447C135.985 47.8989 135.477 47.7469 135.084 47.5887C134.696 47.4263 134.385 47.2139 134.151 46.9515C133.917 46.6892 133.8 46.3664 133.8 45.9833C133.8 45.6418 133.908 45.319 134.124 45.015C134.34 44.711 134.658 44.4695 135.078 44.2904C135.501 44.1072 136.011 44.0155 136.607 44.0155C137.075 44.0155 137.494 44.0614 137.865 44.153C138.24 44.2446 138.551 44.3674 138.798 44.5215C139.05 44.6756 139.24 44.8464 139.368 45.0338C139.5 45.2212 139.566 45.4044 139.566 45.5835C139.566 45.7792 139.496 45.9395 139.355 46.0645C139.218 46.1894 139.021 46.2519 138.765 46.2519C138.58 46.2519 138.421 46.2019 138.289 46.102C138.161 46.002 138.013 45.8521 137.845 45.6522C137.708 45.4856 137.547 45.3524 137.362 45.2524C137.176 45.1525 136.925 45.1025 136.607 45.1025C136.28 45.1025 136.009 45.1691 135.793 45.3024C135.576 45.4315 135.468 45.5939 135.468 45.7896C135.468 45.9687 135.548 46.1165 135.707 46.2331C135.865 46.3456 136.08 46.4393 136.349 46.5142C136.618 46.5892 136.989 46.6808 137.461 46.7891C138.022 46.9182 138.478 47.0723 138.832 47.2514C139.189 47.4304 139.458 47.6428 139.639 47.8885C139.825 48.1301 139.917 48.407 139.917 48.7193Z" fill="#37B44E"/>
<path d="M141.546 44.1655H141.745V43.141C141.745 42.8661 141.751 42.6517 141.765 42.4976C141.782 42.3393 141.826 42.204 141.897 42.0916C141.968 41.9749 142.069 41.8812 142.202 41.8104C142.334 41.7355 142.482 41.698 142.645 41.698C142.875 41.698 143.082 41.7792 143.267 41.9416C143.391 42.0499 143.468 42.1832 143.499 42.3414C143.535 42.4955 143.552 42.7162 143.552 43.0036V44.1655H144.214C144.47 44.1655 144.664 44.2238 144.797 44.3404C144.934 44.4528 145.002 44.5986 145.002 44.7777C145.002 45.0067 144.905 45.167 144.711 45.2587C144.521 45.3503 144.247 45.3961 143.89 45.3961H143.552V48.5319C143.552 48.7985 143.561 49.0046 143.579 49.1504C143.601 49.292 143.654 49.4086 143.738 49.5002C143.826 49.5876 143.967 49.6314 144.161 49.6314C144.267 49.6314 144.411 49.6147 144.592 49.5814C144.773 49.5439 144.914 49.5252 145.015 49.5252C145.161 49.5252 145.291 49.5814 145.406 49.6938C145.525 49.8021 145.585 49.9375 145.585 50.0999C145.585 50.3747 145.426 50.585 145.108 50.7308C144.79 50.8766 144.333 50.9494 143.738 50.9494C143.173 50.9494 142.744 50.8599 142.453 50.6808C142.162 50.5018 141.97 50.254 141.877 49.9375C141.789 49.621 141.745 49.1983 141.745 48.6694V45.3961H141.506C141.246 45.3961 141.047 45.3378 140.91 45.2212C140.774 45.1046 140.705 44.9567 140.705 44.7777C140.705 44.5986 140.776 44.4528 140.917 44.3404C141.063 44.2238 141.272 44.1655 141.546 44.1655Z" fill="#37B44E"/>
<path d="M150.822 49.9874C150.385 50.3081 149.961 50.5496 149.551 50.7121C149.145 50.8703 148.688 50.9494 148.18 50.9494C147.717 50.9494 147.308 50.8641 146.955 50.6933C146.607 50.5184 146.337 50.2831 146.148 49.9874C145.958 49.6918 145.863 49.3711 145.863 49.0254C145.863 48.559 146.02 48.1613 146.333 47.8323C146.646 47.5033 147.077 47.2826 147.624 47.1702C147.739 47.1452 148.023 47.0889 148.478 47.0015C148.933 46.914 149.321 46.8349 149.643 46.7641C149.97 46.6892 150.323 46.5996 150.703 46.4955C150.681 46.0457 150.583 45.7167 150.411 45.5085C150.244 45.2961 149.893 45.1899 149.359 45.1899C148.9 45.1899 148.553 45.2503 148.319 45.3711C148.09 45.4919 147.891 45.673 147.723 45.9146C147.56 46.1561 147.443 46.3164 147.372 46.3956C147.306 46.4705 147.16 46.508 146.935 46.508C146.732 46.508 146.556 46.4476 146.406 46.3268C146.26 46.2019 146.187 46.0437 146.187 45.8521C146.187 45.5522 146.3 45.2607 146.525 44.9775C146.75 44.6944 147.101 44.4612 147.578 44.2779C148.054 44.0947 148.648 44.0031 149.359 44.0031C150.153 44.0031 150.778 44.0926 151.232 44.2717C151.687 44.4466 152.007 44.7256 152.192 45.1087C152.382 45.4919 152.477 45.9999 152.477 46.6329C152.477 47.0327 152.475 47.3721 152.47 47.6512C152.47 47.9302 152.468 48.2404 152.464 48.5819C152.464 48.9026 152.519 49.2378 152.629 49.5876C152.744 49.9333 152.801 50.1561 152.801 50.256C152.801 50.431 152.713 50.5913 152.537 50.737C152.364 50.8786 152.168 50.9494 151.947 50.9494C151.762 50.9494 151.579 50.8682 151.398 50.7058C151.217 50.5392 151.025 50.2998 150.822 49.9874ZM150.703 47.52C150.438 47.6116 150.052 47.7095 149.544 47.8136C149.041 47.9135 148.692 47.9885 148.498 48.0385C148.304 48.0843 148.118 48.178 147.942 48.3196C147.765 48.457 147.677 48.6506 147.677 48.9005C147.677 49.1587 147.781 49.3794 147.988 49.5627C148.196 49.7417 148.467 49.8313 148.802 49.8313C149.16 49.8313 149.489 49.7584 149.789 49.6126C150.093 49.4627 150.316 49.2711 150.458 49.0379C150.621 48.7797 150.703 48.355 150.703 47.7636V47.52Z" fill="#37B44E"/>
<path d="M155.959 44.9588V45.165C156.277 44.7693 156.624 44.4799 156.999 44.2967C157.379 44.1093 157.813 44.0155 158.303 44.0155C158.78 44.0155 159.206 44.1134 159.581 44.3091C159.956 44.5049 160.236 44.7818 160.422 45.14C160.541 45.3482 160.618 45.5731 160.654 45.8146C160.689 46.0562 160.707 46.3643 160.707 46.7391V49.9125C160.707 50.254 160.623 50.5122 160.455 50.6871C160.292 50.862 160.078 50.9494 159.813 50.9494C159.544 50.9494 159.325 50.8599 159.157 50.6808C158.99 50.5018 158.906 50.2456 158.906 49.9125V47.0702C158.906 46.508 158.822 46.0791 158.654 45.7834C158.491 45.4835 158.162 45.3336 157.668 45.3336C157.345 45.3336 157.052 45.4252 156.787 45.6085C156.522 45.7875 156.328 46.0353 156.204 46.3518C156.116 46.6059 156.072 47.0806 156.072 47.7761V49.9125C156.072 50.2581 155.986 50.5184 155.814 50.6933C155.646 50.8641 155.428 50.9494 155.158 50.9494C154.898 50.9494 154.684 50.8599 154.516 50.6808C154.348 50.5018 154.265 50.2456 154.265 49.9125V44.9838C154.265 44.659 154.34 44.4174 154.49 44.2592C154.64 44.0968 154.845 44.0155 155.105 44.0155C155.264 44.0155 155.408 44.0509 155.536 44.1217C155.664 44.1925 155.765 44.2987 155.84 44.4403C155.92 44.5819 155.959 44.7547 155.959 44.9588Z" fill="#37B44E"/>
<path d="M167.029 45.0775L168.208 48.888L169.28 45.3461C169.395 44.9755 169.479 44.7235 169.532 44.5902C169.589 44.4528 169.693 44.3237 169.843 44.203C169.998 44.078 170.207 44.0155 170.472 44.0155C170.741 44.0155 170.951 44.078 171.101 44.203C171.256 44.3237 171.364 44.457 171.426 44.6027C171.487 44.7443 171.573 44.9921 171.684 45.3461L172.756 48.888L173.948 45.0775C174.028 44.8026 174.092 44.6048 174.14 44.4841C174.189 44.3591 174.27 44.2508 174.385 44.1592C174.5 44.0634 174.665 44.0155 174.882 44.0155C175.098 44.0155 175.285 44.0863 175.444 44.2279C175.603 44.3695 175.683 44.5361 175.683 44.7277C175.683 44.9026 175.614 45.167 175.477 45.521L174.001 49.6064C173.873 49.952 173.774 50.2019 173.703 50.356C173.633 50.5101 173.52 50.6475 173.365 50.7683C173.215 50.8891 173.008 50.9494 172.743 50.9494C172.469 50.9494 172.253 50.8849 172.094 50.7558C171.94 50.6267 171.825 50.4684 171.75 50.281C171.675 50.0936 171.593 49.85 171.505 49.5502L170.472 46.2269L169.472 49.5502C169.34 50.0124 169.197 50.3622 169.042 50.5996C168.888 50.8328 168.616 50.9494 168.228 50.9494C168.029 50.9494 167.859 50.912 167.718 50.837C167.581 50.7662 167.466 50.6642 167.374 50.5309C167.281 50.3935 167.199 50.2331 167.129 50.0499C167.058 49.8625 167.003 49.7147 166.963 49.6064L165.5 45.521C165.354 45.1379 165.282 44.8734 165.282 44.7277C165.282 44.5444 165.359 44.3799 165.513 44.2342C165.668 44.0884 165.858 44.0155 166.083 44.0155C166.383 44.0155 166.586 44.0968 166.692 44.2592C166.798 44.4174 166.91 44.6902 167.029 45.0775Z" fill="#37B44E"/>
<path d="M178.742 44.9838V49.9125C178.742 50.254 178.655 50.5122 178.483 50.6871C178.311 50.862 178.093 50.9494 177.828 50.9494C177.563 50.9494 177.347 50.8599 177.179 50.6808C177.016 50.5018 176.934 50.2456 176.934 49.9125V45.0338C176.934 44.6964 177.016 44.4424 177.179 44.2717C177.347 44.1009 177.563 44.0155 177.828 44.0155C178.093 44.0155 178.311 44.1009 178.483 44.2717C178.655 44.4424 178.742 44.6798 178.742 44.9838ZM177.848 43.2222C177.596 43.2222 177.38 43.1493 177.199 43.0036C177.022 42.8578 176.934 42.6517 176.934 42.3851C176.934 42.1436 177.025 41.9458 177.206 41.7917C177.391 41.6335 177.605 41.5543 177.848 41.5543C178.082 41.5543 178.289 41.6251 178.47 41.7667C178.651 41.9083 178.742 42.1145 178.742 42.3851C178.742 42.6475 178.653 42.8537 178.477 43.0036C178.3 43.1493 178.09 43.2222 177.848 43.2222Z" fill="#37B44E"/>
<path d="M180.715 44.1655H180.913V43.141C180.913 42.8661 180.92 42.6517 180.933 42.4976C180.951 42.3393 180.995 42.204 181.065 42.0916C181.136 41.9749 181.238 41.8812 181.37 41.8104C181.502 41.7355 181.65 41.698 181.814 41.698C182.043 41.698 182.251 41.7792 182.436 41.9416C182.56 42.0499 182.637 42.1832 182.668 42.3414C182.703 42.4955 182.721 42.7162 182.721 43.0036V44.1655H183.383C183.639 44.1655 183.833 44.2238 183.965 44.3404C184.102 44.4528 184.171 44.5986 184.171 44.7777C184.171 45.0067 184.073 45.167 183.879 45.2587C183.689 45.3503 183.416 45.3961 183.058 45.3961H182.721V48.5319C182.721 48.7985 182.729 49.0046 182.747 49.1504C182.769 49.292 182.822 49.4086 182.906 49.5002C182.994 49.5876 183.136 49.6314 183.33 49.6314C183.436 49.6314 183.579 49.6147 183.76 49.5814C183.941 49.5439 184.082 49.5252 184.184 49.5252C184.329 49.5252 184.46 49.5814 184.574 49.6938C184.694 49.8021 184.753 49.9375 184.753 50.0999C184.753 50.3747 184.594 50.585 184.276 50.7308C183.959 50.8766 183.502 50.9494 182.906 50.9494C182.341 50.9494 181.913 50.8599 181.622 50.6808C181.33 50.5018 181.138 50.254 181.046 49.9375C180.957 49.621 180.913 49.1983 180.913 48.6694V45.3961H180.675C180.414 45.3961 180.216 45.3378 180.079 45.2212C179.942 45.1046 179.874 44.9567 179.874 44.7777C179.874 44.5986 179.944 44.4528 180.086 44.3404C180.231 44.2238 180.441 44.1655 180.715 44.1655Z" fill="#37B44E"/>
<path d="M187.19 42.5163V45.0463C187.419 44.7964 187.642 44.5986 187.858 44.4528C188.079 44.3071 188.322 44.1988 188.587 44.128C188.851 44.053 189.136 44.0155 189.441 44.0155C189.9 44.0155 190.306 44.1072 190.659 44.2904C191.016 44.4736 191.297 44.7402 191.5 45.09C191.628 45.294 191.714 45.5231 191.758 45.7771C191.802 46.027 191.824 46.3164 191.824 46.6454V49.9125C191.824 50.254 191.74 50.5122 191.573 50.6871C191.409 50.862 191.191 50.9494 190.917 50.9494C190.321 50.9494 190.023 50.6038 190.023 49.9125V47.0327C190.023 46.4872 189.937 46.0686 189.765 45.7771C189.593 45.4815 189.266 45.3336 188.785 45.3336C188.463 45.3336 188.172 45.4211 187.911 45.596C187.655 45.7667 187.463 46.002 187.335 46.3019C187.238 46.5559 187.19 47.0077 187.19 47.6574V49.9125C187.19 50.2498 187.108 50.508 186.945 50.6871C186.786 50.862 186.563 50.9494 186.276 50.9494C185.68 50.9494 185.382 50.6038 185.382 49.9125V42.5163C185.382 42.1707 185.459 41.9125 185.614 41.7417C185.773 41.5668 185.993 41.4794 186.276 41.4794C186.563 41.4794 186.786 41.5668 186.945 41.7417C187.108 41.9166 187.19 42.1748 187.19 42.5163Z" fill="#37B44E"/>
<path d="M203.53 43.066H199.1V45.3149H203.179C203.479 45.3149 203.702 45.3794 203.847 45.5085C203.998 45.6335 204.073 45.8 204.073 46.0083C204.073 46.2165 204 46.3872 203.854 46.5205C203.708 46.6496 203.483 46.7141 203.179 46.7141H199.1V49.319H203.682C203.991 49.319 204.223 49.3878 204.377 49.5252C204.536 49.6584 204.615 49.8375 204.615 50.0624C204.615 50.279 204.536 50.4559 204.377 50.5934C204.223 50.7266 203.991 50.7933 203.682 50.7933H198.339C197.911 50.7933 197.602 50.7037 197.412 50.5247C197.227 50.3456 197.134 50.0562 197.134 49.6564V42.7724C197.134 42.5059 197.176 42.2894 197.26 42.1228C197.344 41.952 197.474 41.8292 197.65 41.7542C197.831 41.6751 198.061 41.6355 198.339 41.6355H203.53C203.843 41.6355 204.075 41.7022 204.225 41.8354C204.379 41.9645 204.457 42.1353 204.457 42.3477C204.457 42.5642 204.379 42.7391 204.225 42.8724C204.075 43.0015 203.843 43.066 203.53 43.066Z" fill="#37B44E"/>
<path d="M210.621 49.9874C210.184 50.3081 209.76 50.5496 209.349 50.7121C208.943 50.8703 208.486 50.9494 207.979 50.9494C207.515 50.9494 207.107 50.8641 206.754 50.6933C206.405 50.5184 206.136 50.2831 205.946 49.9874C205.756 49.6918 205.662 49.3711 205.662 49.0254C205.662 48.559 205.818 48.1613 206.132 47.8323C206.445 47.5033 206.875 47.2826 207.423 47.1702C207.537 47.1452 207.822 47.0889 208.277 47.0015C208.731 46.914 209.12 46.8349 209.442 46.7641C209.769 46.6892 210.122 46.5996 210.501 46.4955C210.479 46.0457 210.382 45.7167 210.21 45.5085C210.042 45.2961 209.691 45.1899 209.157 45.1899C208.698 45.1899 208.352 45.2503 208.118 45.3711C207.888 45.4919 207.69 45.673 207.522 45.9146C207.359 46.1561 207.242 46.3164 207.171 46.3956C207.105 46.4705 206.959 46.508 206.734 46.508C206.531 46.508 206.355 46.4476 206.204 46.3268C206.059 46.2019 205.986 46.0437 205.986 45.8521C205.986 45.5522 206.099 45.2607 206.324 44.9775C206.549 44.6944 206.9 44.4612 207.376 44.2779C207.853 44.0947 208.447 44.0031 209.157 44.0031C209.952 44.0031 210.576 44.0926 211.031 44.2717C211.486 44.4466 211.806 44.7256 211.991 45.1087C212.181 45.4919 212.276 45.9999 212.276 46.6329C212.276 47.0327 212.273 47.3721 212.269 47.6512C212.269 47.9302 212.267 48.2404 212.262 48.5819C212.262 48.9026 212.318 49.2378 212.428 49.5876C212.543 49.9333 212.6 50.1561 212.6 50.256C212.6 50.431 212.512 50.5913 212.335 50.737C212.163 50.8786 211.967 50.9494 211.746 50.9494C211.561 50.9494 211.377 50.8682 211.197 50.7058C211.016 50.5392 210.824 50.2998 210.621 49.9874ZM210.501 47.52C210.236 47.6116 209.85 47.7095 209.343 47.8136C208.84 47.9135 208.491 47.9885 208.297 48.0385C208.102 48.0843 207.917 48.178 207.74 48.3196C207.564 48.457 207.476 48.6506 207.476 48.9005C207.476 49.1587 207.579 49.3794 207.787 49.5627C207.994 49.7417 208.266 49.8313 208.601 49.8313C208.959 49.8313 209.288 49.7584 209.588 49.6126C209.892 49.4627 210.115 49.2711 210.256 49.0379C210.42 48.7797 210.501 48.355 210.501 47.7636V47.52Z" fill="#37B44E"/>
<path d="M219.936 48.7193C219.936 49.1899 219.815 49.5939 219.572 49.9312C219.329 50.2644 218.969 50.5184 218.493 50.6933C218.02 50.8641 217.444 50.9494 216.765 50.9494C216.116 50.9494 215.56 50.8557 215.096 50.6683C214.633 50.4809 214.291 50.2477 214.07 49.9687C213.849 49.6855 213.739 49.4023 213.739 49.1191C213.739 48.9317 213.81 48.7714 213.951 48.6381C214.092 48.5049 214.271 48.4382 214.487 48.4382C214.677 48.4382 214.822 48.482 214.924 48.5694C215.026 48.6569 215.123 48.7797 215.215 48.938C215.401 49.242 215.621 49.469 215.877 49.6189C216.138 49.7688 216.491 49.8438 216.937 49.8438C217.299 49.8438 217.594 49.7688 217.824 49.6189C218.058 49.4648 218.175 49.2899 218.175 49.0942C218.175 48.7943 218.053 48.5757 217.811 48.4382C217.572 48.3008 217.177 48.1696 216.626 48.0447C216.003 47.8989 215.496 47.7469 215.103 47.5887C214.714 47.4263 214.403 47.2139 214.169 46.9515C213.935 46.6892 213.818 46.3664 213.818 45.9833C213.818 45.6418 213.926 45.319 214.143 45.015C214.359 44.711 214.677 44.4695 215.096 44.2904C215.52 44.1072 216.03 44.0155 216.626 44.0155C217.093 44.0155 217.513 44.0614 217.883 44.153C218.259 44.2446 218.57 44.3674 218.817 44.5215C219.069 44.6756 219.258 44.8464 219.386 45.0338C219.519 45.2212 219.585 45.4044 219.585 45.5835C219.585 45.7792 219.514 45.9395 219.373 46.0645C219.236 46.1894 219.04 46.2519 218.784 46.2519C218.599 46.2519 218.44 46.2019 218.307 46.102C218.179 46.002 218.031 45.8521 217.864 45.6522C217.727 45.4856 217.566 45.3524 217.38 45.2524C217.195 45.1525 216.943 45.1025 216.626 45.1025C216.299 45.1025 216.027 45.1691 215.811 45.3024C215.595 45.4315 215.487 45.5939 215.487 45.7896C215.487 45.9687 215.566 46.1165 215.725 46.2331C215.884 46.3456 216.098 46.4393 216.367 46.5142C216.637 46.5892 217.007 46.6808 217.48 46.7891C218.04 46.9182 218.497 47.0723 218.85 47.2514C219.208 47.4304 219.477 47.6428 219.658 47.8885C219.843 48.1301 219.936 48.407 219.936 48.7193Z" fill="#37B44E"/>
<path d="M226.51 47.901H222.975C222.979 48.2883 223.061 48.6298 223.22 48.9255C223.383 49.2212 223.597 49.444 223.862 49.5939C224.131 49.7438 224.427 49.8188 224.749 49.8188C224.965 49.8188 225.162 49.7959 225.338 49.7501C225.519 49.7001 225.694 49.6251 225.861 49.5252C226.029 49.4211 226.184 49.3107 226.325 49.1941C226.466 49.0775 226.649 48.9192 226.874 48.7193C226.967 48.6444 227.1 48.6069 227.272 48.6069C227.457 48.6069 227.607 48.6548 227.722 48.7506C227.837 48.8464 227.894 48.9817 227.894 49.1566C227.894 49.3107 227.83 49.4919 227.702 49.7001C227.574 49.9041 227.38 50.102 227.119 50.2935C226.863 50.4809 226.539 50.6371 226.146 50.762C225.758 50.887 225.31 50.9494 224.802 50.9494C223.641 50.9494 222.739 50.6371 222.094 50.0124C221.45 49.3878 221.128 48.5403 221.128 47.47C221.128 46.9661 221.207 46.4997 221.366 46.0707C221.525 45.6376 221.757 45.267 222.061 44.9588C222.366 44.6506 222.741 44.4153 223.187 44.2529C223.633 44.0863 224.127 44.0031 224.67 44.0031C225.376 44.0031 225.981 44.1446 226.484 44.4278C226.991 44.7069 227.371 45.0692 227.623 45.5148C227.874 45.9604 228 46.4143 228 46.8766C228 47.3055 227.87 47.5845 227.609 47.7136C227.349 47.8386 226.983 47.901 226.51 47.901ZM222.975 46.9328H226.252C226.208 46.3498 226.04 45.9146 225.749 45.6272C225.462 45.3357 225.082 45.1899 224.61 45.1899C224.16 45.1899 223.789 45.3378 223.498 45.6335C223.211 45.925 223.037 46.3581 222.975 46.9328Z" fill="#37B44E"/>
</svg>
